# xmcd
#
# Track frame offsets:
#	150
#	12784
#	32771
#	48834
#	60371
#	73959
#	86408
#	105259
#	118296
#	132171
#	148609
#	165109
#	177671
#	190384
#	206821
#	221071
#
# Disc length: 3154
#
# Revision: 3
# Processed by: cddbd v1.5.1PL0 Copyright (c) Steve Scherf et al.
# Submitted via: Audio-CD-Archiv 2.10.446
# Normalized: r2:TDELIM( - )
#
DISCID=e30c5010
DTITLE=Various Artist - 48 Nr.1 Country Hits Vol. 3
DYEAR=1900
DGENRE=country
TTITLE0=Clint Black - Killin' Time
TTITLE1=Rodney Crowell - After All This Time
TTITLE2=Patty Loveless - Blame It On Your Heard
TTITLE3=Ricky Van Shelton - Don't We All Have The Right
TTITLE4=Ricochet - Daddy's Money
TTITLE5=Joe Diffle - If The Devil Danced (In Empty Pockets)
TTITLE6=K. T. Oslin - 80's Ladies
TTITLE7=Collin Raye - My Kind Of Girl
TTITLE8=Rick Trevino - Running Out Of Reasons To Run
TTITLE9=Shenandoah - Next To You , Next To Me
TTITLE10=Ty Herndon - What Mattered Most
TTITLE11=Vern Gosdin - I'm Still Crazy
TTITLE12=The O'Kanes - Can't Stop My Heard From Lovind You
TTITLE13=Wade Hayes - Old Enough To Know Better
TTITLE14=Mike Reid - Walk On Faith
TTITLE15=Doug Stone - In A Different Light
EXTD=
EXTT0=
EXTT1=
EXTT2=
EXTT3=
EXTT4=
EXTT5=
EXTT6=
EXTT7=
EXTT8=
EXTT9=
EXTT10=
EXTT11=
EXTT12=
EXTT13=
EXTT14=
EXTT15=
PLAYORDER=
